<svg xmlns="http://www.w3.org/2000/svg" xmlns:xlink="http://www.w3.org/1999/xlink" width="39" height="39" viewBox="0 0 39 39">
  <defs>
    <rect id="rect-1" width="39" height="39" x="0" y="0"/>
    <mask id="mask-2" maskContentUnits="userSpaceOnUse" maskUnits="userSpaceOnUse">
      <rect width="39" height="39" x="0" y="0" fill="black"/>
      <use fill="white" xlink:href="#rect-1"/>
    </mask>
  </defs>
  <g>
    <use fill="none" xlink:href="#rect-1"/>
    <g mask="url(#mask-2)">
      <path fill="rgb(255,255,255)" fill-rule="evenodd" d="M19.5 7.87944727c-2.63539453 0-5.12027344.86020898-7.18597852 2.48762109-.2556328.20139844-.29958398.5719746-.09818554.8276836.20139843.2556328.5719746.2995078.8276836.09818554C14.89929491 9.83089453 17.13189257 9.05813086 19.5 9.05813086c5.75767969 0 10.44194531 4.68418945 10.44194531 10.44194531S25.2576797 29.94194531 19.5 29.94194531 9.05805469 25.25775586 9.05805469 19.5c0-2.40017578.79157812-4.65638672 2.28926953-6.52503516.20353125-.25395703.16262695-.62483789-.09133008-.8284453-.25395703-.20360743-.62491406-.16270313-.82836914.09133007-1.64325586 2.05031836-2.5482539 4.62942187-2.5482539 7.26222656 0 6.40757813 5.2129746 11.62055274 11.62055273 11.62055274 6.40757812 0 11.6206289-5.21305079 11.6206289-11.62062891 0-6.40757813-5.2129746-11.62055273-11.62055273-11.62055273z"/>
      <path fill="rgb(255,255,255)" fill-rule="evenodd" d="M19.5 0c-.32548242 0-.5893418.2637832-.5893418.5893418v3.15161132c0 .3255586.26385938.5893418.5893418.5893418.32548242 0 .5893418-.2637832.5893418-.5893418V.5893418C20.0893418.2637832 19.82548242 0 19.5 0z"/>
      <path fill="rgb(255,255,255)" fill-rule="evenodd" d="M12.13082812 5.55765234L10.55506055 2.8283379c-.16270313-.2819121-.52307227-.37826953-.80506055-.21571875-.28183594.16270313-.37842188.52314844-.21571875.80506055l1.57576758 2.72931445c.1091543.1890586.30727734.29470898.51088476.29470898.0999375 0 .20132227-.0254414.29409961-.0790664.28198828-.16270313.37857422-.52314844.21579492-.80498438z"/>
      <path fill="rgb(255,255,255)" fill-rule="evenodd" d="M6.14691797 11.110125L3.41752734 9.53435742c-.28183593-.16262695-.64228125-.06626953-.80506054.21571875-.16270313.28183594-.06619336.64228125.21571875.80506055l2.72939062 1.57576758c.09277735.05354882.19416211.0790664.29409961.0790664.2036836 0 .40173047-.10565039.51088477-.29470898.16293164-.28198828.06626953-.64235742-.21564258-.80513672z"/>
      <path fill="rgb(255,255,255)" fill-rule="evenodd" d="M3.74095312 18.9106582H.5893418C.26385937 18.9106582 0 19.1744414 0 19.5c0 .3255586.26385937.5893418.5893418.5893418h3.1516875c.32548242 0 .5893418-.2637832.5893418-.5893418 0-.3255586-.26393555-.5893418-.58941798-.5893418z"/>
      <path fill="rgb(255,255,255)" fill-rule="evenodd" d="M6.36263672 27.08481445c-.16270313-.28183593-.52307227-.37826953-.80506055-.21571875l-2.72931445 1.57584375c-.28183594.16270313-.37842188.52314844-.21571875.80506055.1091543.1890586.30720117.29470898.51088476.29470898.0999375 0 .20132227-.0254414.29409961-.0790664L6.14691797 27.889875c.2819121-.1627793.37849805-.52314844.21571875-.80506055z"/>
      <path fill="rgb(255,255,255)" fill-rule="evenodd" d="M11.91518555 32.63736328c-.28183594-.16262695-.64228125-.06626953-.80506055.21571875l-1.57576758 2.72939063c-.16270312.28183593-.06619336.64228125.21571875.80498437.09277735.053625.19416211.0790664.29409961.0790664.2036836 0 .40173047-.10565038.51088477-.29470898l1.57576758-2.72939062c.1627793-.28191211.06619335-.64235742-.21564258-.80506055z"/>
      <path fill="rgb(255,255,255)" fill-rule="evenodd" d="M19.5 34.66978125c-.32548242 0-.5893418.2637832-.5893418.5893418v3.15161132c0 .3255586.26385938.5893418.5893418.5893418.32548242 0 .5893418-.2637832.5893418-.5893418v-3.15161132c0-.3255586-.26385938-.5893418-.5893418-.5893418z"/>
      <path fill="rgb(255,255,255)" fill-rule="evenodd" d="M29.46564258 35.58247266L27.889875 32.85308203c-.16270312-.2819121-.52314844-.37826953-.80506055-.21571875-.28183593.16270313-.37842187.52314844-.21571875.80498438l1.57576758 2.72939062c.1091543.1890586.30727735.29470899.51088477.29470899.0999375 0 .20132226-.02544141.2940996-.07906641.28198829-.16262695.37857423-.52307227.21579493-.8049082z"/>
      <path fill="rgb(255,255,255)" fill-rule="evenodd" d="M36.17173828 28.44493945l-2.72939062-1.57576757c-.28183594-.16262696-.64228125-.06626954-.80506055.21571875-.16270313.28183593-.06619336.64228125.21571875.80506054l2.72939062 1.57576758c.09277735.053625.19416211.0790664.29409961.0790664.2036836 0 .40173047-.10565038.51088477-.29470898.16285547-.28198828.06626953-.6424336-.21564258-.80513672z"/>
      <path fill="rgb(255,255,255)" fill-rule="evenodd" d="M38.4106582 18.9106582h-3.1516875c-.32548242 0-.5893418.2637832-.5893418.5893418 0 .3255586.26385938.5893418.5893418.5893418h3.1516875C38.73614062 20.0893418 39 19.8255586 39 19.5c0-.3255586-.26385938-.5893418-.5893418-.5893418z"/>
      <path fill="rgb(255,255,255)" fill-rule="evenodd" d="M36.38745703 9.75c-.16270312-.2819121-.52314844-.37826953-.80498437-.21571875l-2.72939063 1.57576758c-.28183594.16270312-.37842187.52314844-.21571875.80506054.1091543.1890586.30720117.29470899.51088477.29470899.0999375 0 .20132226-.0254414.2940996-.0790664l2.72939063-1.57576759c.28191211-.16262695.37842188-.52307226.21571875-.80498437z"/>
      <path fill="rgb(255,255,255)" fill-rule="evenodd" d="M29.25 2.61261914c-.28183594-.16262695-.64228125-.06626953-.80506055.21571875l-1.57576758 2.72931445c-.16270312.28175977-.06619335.64220508.21571875.80506055.09277735.05354883.19416211.0790664.29409961.0790664.2036836 0 .40173047-.10565038.51088477-.29470898l1.57576758-2.72931445c.1627793-.28198828.06619336-.6424336-.21564258-.80513672z"/>
    </g>
  </g>
</svg>
