<svg id="Layer_1" data-name="Layer 1" xmlns="http://www.w3.org/2000/svg" xmlns:xlink="http://www.w3.org/1999/xlink" viewBox="0 0 141 39"><defs><style>.cls-1{fill:#fff;}.cls-2{fill:none;}.cls-3{mask:url(#mask);}.cls-4{isolation:isolate;}</style><mask id="mask" x="0" y="0" width="141" height="39" maskUnits="userSpaceOnUse"><g id="mask-2"><rect width="141" height="39"/><rect id="rect-1" class="cls-1" width="39" height="39"/></g></mask></defs><title>logo</title><rect id="rect-1-2" data-name="rect-1" class="cls-2" width="39" height="39"/><g class="cls-3"><path d="M19.5,7.88a11.5,11.5,0,0,0-7.19,2.49.59.59,0,0,0,.73.93A10.33,10.33,0,0,1,19.5,9.06,10.44,10.44,0,1,1,9.06,19.5,10.33,10.33,0,0,1,11.35,13a.59.59,0,1,0-.92-.74A11.62,11.62,0,1,0,19.5,7.88Z"/><path d="M19.5,0a.59.59,0,0,0-.59.59V3.74a.59.59,0,0,0,1.18,0V.59A.59.59,0,0,0,19.5,0Z"/><path d="M12.13,5.56,10.56,2.83a.59.59,0,0,0-1,.59l1.58,2.73a.59.59,0,0,0,1-.59Z"/><path d="M6.15,11.11,3.42,9.53a.59.59,0,0,0-.59,1l2.73,1.58a.59.59,0,0,0,.59-1Z"/><path d="M3.74,18.91H.59a.59.59,0,0,0,0,1.18H3.74a.59.59,0,1,0,0-1.18Z"/><path d="M6.36,27.08a.59.59,0,0,0-.81-.22L2.83,28.44a.59.59,0,1,0,.59,1l2.73-1.58A.59.59,0,0,0,6.36,27.08Z"/><path d="M11.92,32.64a.59.59,0,0,0-.81.22L9.53,35.58a.59.59,0,1,0,1,.59l1.58-2.73A.59.59,0,0,0,11.92,32.64Z"/><path d="M19.5,34.67a.59.59,0,0,0-.59.59v3.15a.59.59,0,0,0,1.18,0V35.26A.59.59,0,0,0,19.5,34.67Z"/><path d="M29.47,35.58l-1.58-2.73a.59.59,0,0,0-1,.59l1.58,2.73a.59.59,0,0,0,1-.59Z"/><path d="M36.17,28.44l-2.73-1.58a.59.59,0,0,0-.59,1l2.73,1.58a.59.59,0,0,0,.59-1Z"/><path d="M38.41,18.91H35.26a.59.59,0,0,0,0,1.18h3.15a.59.59,0,0,0,0-1.18Z"/><path d="M36.39,9.75a.59.59,0,0,0-.8-.22l-2.73,1.58a.59.59,0,1,0,.59,1l2.73-1.58A.59.59,0,0,0,36.39,9.75Z"/><path d="M29.25,2.61a.59.59,0,0,0-.81.22L26.87,5.56a.59.59,0,1,0,1,.59l1.58-2.73A.59.59,0,0,0,29.25,2.61Z"/></g><g class="cls-4"><g class="cls-4"><path d="M49.37,22.9l.55,2.87H50l.62-2.87,3.71-12.67H55.8L59.53,22.9l.6,2.88h.07l.59-2.88,3.14-12.67h1.59L61,28H59.56l-4-13.63-.44-1.92H55l-.42,1.92L50.56,28H49.16L44.61,10.23H46.2Z"/><path d="M77.84,19.39h-8v7.37h9.22V28H68.4V10.23H79v1.25H69.87v6.68h8Z"/><path d="M91.49,23h-7.8l-1.79,5H80.38l6.53-17.77h1.38L94.77,28H93.26Zm-7.34-1.31H91l-3.37-9.42h-.07Z"/><path d="M108,11.47H102V28h-1.45V11.47H94.26V10.23H108Z"/><path d="M123.91,28h-1.46V19.82H112.35V28h-1.46V10.23h1.46v8.35h10.09V10.23h1.46Z"/><path d="M133.46,20.1,139,10.23h1.7l-6.48,11.28V28h-1.45V21.45L126.3,10.23H128Z"/></g></g></svg>